<svg xmlns="http://www.w3.org/2000/svg" viewBox="0 0 45.32 45.32">
  <defs>
    <linearGradient id="deepSeaBlue" x1="0%" y1="0%" x2="100%" y2="100%">
      <stop offset="0%" stop-color="#0a3858" />
      <stop offset="100%" stop-color="#062040" />
    </linearGradient>
    <radialGradient id="holographicChrome" cx="50%" cy="50%" r="70%" fx="50%" fy="50%">
      <stop offset="0%" stop-color="#f0f0f0" />
      <stop offset="25%" stop-color="#d8d8e0" />
      <stop offset="40%" stop-color="#7b92e8" />
      <stop offset="55%" stop-color="#54cdda" />
      <stop offset="70%" stop-color="#5fd3ab" />
      <stop offset="85%" stop-color="#b887f5" />
      <stop offset="100%" stop-color="#76a6f0" />
    </radialGradient>
    <filter id="metallic" x="-10%" y="-10%" width="120%" height="120%">
      <feGaussianBlur in="SourceAlpha" stdDeviation="0.5" result="blur"/>
      <feSpecularLighting in="blur" specularExponent="30" lighting-color="#white" result="specular">
        <fePointLight x="50" y="50" z="100"/>
      </feSpecularLighting>
      <feComposite in="specular" in2="SourceAlpha" operator="in" result="specular"/>
      <feComposite in="SourceGraphic" in2="specular" operator="arithmetic" k1="0" k2="1" k3="1" k4="0"/>
    </filter>
  </defs>
  <g id="Layer_2" data-name="Layer 2">
    <g id="Layer_1-2" data-name="Layer 1">
      <!-- Circle background -->
      <circle cx="22.66" cy="22.66" r="22.66" fill="url(#deepSeaBlue)"/>
      
      <!-- Anchor with holographic chrome effect -->
      <path d="M26.63,15a.75.75,0,1,1,.75.74A.74.74,0,0,1,26.63,15ZM18,14.21a.75.75,0,1,0,.75.75A.75.75,0,0,0,18,14.21Z" fill="#e0e5f0"/>
      <path d="M36.65,27.72a12.41,12.41,0,0,1-4.93,2.55.14.14,0,0,0,0,.24l1.68,1.35a14.63,14.63,0,0,1-4.63,2.94,3.25,3.25,0,0,1-4.43-3l-.08-15.94.05-.05h2a1.39,1.39,0,1,0,0-1.67h-2l-.05,0,0-3.23a3.06,3.06,0,1,0-3.06,0v3.23a.12.12,0,0,0-.05,0h-2a1.38,1.38,0,0,0-2.48.84A1.38,1.38,0,0,0,18,16.34a1.4,1.4,0,0,0,1.1-.55h2l0,.05L21,31.78a3.25,3.25,0,0,1-4.43,3A14.56,14.56,0,0,1,12,31.86l1.69-1.35a.14.14,0,0,0-.05-.24,12.45,12.45,0,0,1-4.94-2.55.13.13,0,0,0-.21.15A16.12,16.12,0,0,0,19.07,38a7.58,7.58,0,0,1,3.44,2.17l0,0a.16.16,0,0,0,.24,0l0,0A7.53,7.53,0,0,1,26.26,38a16.13,16.13,0,0,0,10.6-10.08A.13.13,0,0,0,36.65,27.72Zm-14-21.34a1.8,1.8,0,1,0,1.8,1.8A1.81,1.81,0,0,0,22.66,6.38Z" fill="url(#holographicChrome)" filter="url(#metallic)"/>
    </g>
  </g>
</svg>